<svg id="b160e035-d5d2-4c56-b183-ec5c2cc3b3c6" data-name="katman 1" xmlns="http://www.w3.org/2000/svg" xmlns:xlink="http://www.w3.org/1999/xlink" viewBox="0 0 731.96671 396.48898"><defs><style>.bf4205a4-c45b-4680-94f7-309f190858a7{fill:none;}.bc403682-139f-4702-842d-fa6e35b1ecda{clip-path:url(#f83cb5d7-08ed-4218-b008-c30d14eafb86);}.f20f17e8-0253-44b7-b923-779d5bb95878{fill:url(#e31e2f8a-ff81-40f7-9ccf-9e49e3e6c6ea);}.a8e349a1-2b41-4f32-8172-d93bf2506964{clip-path:url(#b961b5b0-f7cb-4c28-b096-674a93f91e03);}.ae4138fa-fb98-47d9-9c3d-12af88d09fb6{fill:#ff752f;}</style><clipPath id="f83cb5d7-08ed-4218-b008-c30d14eafb86" transform="translate(-133.86899 -302.034)"><path class="bf4205a4-c45b-4680-94f7-309f190858a7" d="M375.384,570.858l.033-.059,17.379-30.1,22.431-38.851,32.306-55.955-.001-.001L496.715,360.707H634.54a60.66053,60.66053,0,1,1,0,121.32105H621.6v-.001H545.338l25.46-44.098H634.54a16.5625,16.5625,0,0,0,0-33.125H522.175l-4.394,7.61L477.59,482.027l-3.837,6.645L413.607,592.848l-.034.059-.006-.004a93.93355,93.93355,0,0,1-164.289-91.062L288.135,569.1c.397.75.797,1.499,1.231,2.226.242.409.498.801.748,1.2a49.87731,49.87731,0,0,0,41.729,23.203v.032c.128.001.257.002.385.002a49.35384,49.35384,0,0,0,43.156-24.905M619.58,302.034H462.84L400.76,409.56a152.60635,152.60635,0,0,0-68.614-16.354h-.008a151.53775,151.53775,0,0,0-25.687,2.208l32.773,56.767a94.66749,94.66749,0,0,1,32.144,8.288L332.229,528.26l-22.317-38.655-46.246-80.102-13.324-23.077-48.724-84.392H133.869l83.054,143.855c-41.382,47.814-50.24,118.527-16.887,176.297a152.696,152.696,0,0,0,266.118-3.009l45.31-78.478h41.728l57.399,99.153h67.748l-57.398-99.153H634.54a119.33251,119.33251,0,0,0,0-238.665Z"/></clipPath><linearGradient id="e31e2f8a-ff81-40f7-9ccf-9e49e3e6c6ea" y1="1000" x2="1" y2="1000" gradientTransform="matrix(620.00366, 0, 0, -620.00366, -0.00014, 620201.9068)" gradientUnits="userSpaceOnUse"><stop offset="0" stop-color="#fff"/><stop offset="0.49227" stop-color="#ffffbc"/><stop offset="1" stop-color="#c99971"/></linearGradient><clipPath id="b961b5b0-f7cb-4c28-b096-674a93f91e03" transform="translate(-133.86899 -302.034)"><rect class="bf4205a4-c45b-4680-94f7-309f190858a7" width="1000" height="1000"/></clipPath></defs><title>Vorp_Logo-04</title><g class="bc403682-139f-4702-842d-fa6e35b1ecda"><rect class="f20f17e8-0253-44b7-b923-779d5bb95878" width="620.00296" height="396.48898"/></g><g class="a8e349a1-2b41-4f32-8172-d93bf2506964"><path class="ae4138fa-fb98-47d9-9c3d-12af88d09fb6" d="M773.39929,597.77341h13.074q3.39752,0,4.752-4.276a5.45638,5.45638,0,0,0,.201-1.643v-7.39l-18.027,13.208Z" transform="translate(-133.86899 -302.034)"/><path class="ae4138fa-fb98-47d9-9c3d-12af88d09fb6" d="M774.39166,481.88824a153.09891,153.09891,0,0,1-99.265,86.399l31.835,54.995,9.592,16.57h149.282Zm-32.59,124.578h-9.903l-12.022-24.175h10.683l6.29,12.698,6.29-12.698h10.684Zm54.693-1.473a9.76465,9.76465,0,0,1-5.327,1.473h-22.116a9.8924,9.8924,0,0,1-8.985-5.338,10.34332,10.34332,0,0,1-1.18-4.929v-16.183a9.93519,9.93519,0,0,1,4.838-8.794,9.77547,9.77547,0,0,1,5.327-1.471h22.116q6.50849,0,9.474,6.4a11.30773,11.30773,0,0,1,.691,3.796v16.252a9.88229,9.88229,0,0,1-4.83795,8.794" transform="translate(-133.86899 -302.034)"/><path class="ae4138fa-fb98-47d9-9c3d-12af88d09fb6" d="M786.676,578.47629H773.746q-3.42746,0-4.78,4.244a5.35687,5.35687,0,0,0-.203,1.641v7.323l17.913-13.139Z" transform="translate(-133.86899 -302.034)"/></g></svg>